#!OML:ASF F:\twosubjects\two\Thursday\Session 1\Rory.ASF
:FULLY-SPECIFIED
:DEGREES
193
root 9.28672 16.9058 10.6427 48.8089 -92.5423 -52.1141
lowerback 6.89687 -1.82165 -1.33551
upperback -1.42201 -2.53169 0.343425
thorax -5.27327 -1.20396 1.39201
lowerneck -4.74345 -5.82785 -5.24662
upperneck 11.1491 -8.46139 7.53048
head 4.65773 -4.05108 2.67758
rclavicle -1.88845e-015 4.77083e-015
rhumerus 50.2614 -50.3216 -15.9385
rradius 68.8582
rwrist -11.176
rhand -24.9709 27.2433
rfingers 7.12502
rthumb 1.53968 -2.73088
lclavicle -1.88845e-015 4.77083e-015
lhumerus 34.6588 48.5769 5.90471
lradius 69.8839
lwrist 17.7462
lhand -18.9926 36.252
lfingers 7.12502
lthumb 7.31231 66.1057
rfemur -8.17484 25.2183 -8.96405
rtibia 35.1985
rfoot -6.07133 -10.0351
rtoes -33.2664
lfemur -2.80602 -4.84091 0.628811
ltibia 37.8973
lfoot -21.1197 1.05118
ltoes -29.5284
194
root 9.27844 17.1483 10.7043 48.5075 -92.5219 -51.3972
lowerback 6.2166 -1.82992 -1.45725
upperback -1.48603 -2.53443 0.544779
thorax -4.93984 -1.20296 1.644
lowerneck -5.21545 -5.95867 -4.99721
upperneck 11.4352 -8.64175 7.34039
head 4.81839 -4.12411 2.5491
rclavicle 4.96962e-015 0
rhumerus 47.0176 -49.5707 -13.9058
rradius 67.6516
rwrist -11.2913
rhand -25.2227 26.8541
rfingers 7.12502
rthumb 1.2965 -3.12175
lclavicle 4.96962e-015 0
lhumerus 30.288 46.9108 3.10185
lradius 69.5511
lwrist 18.4964
lhand -18.9758 36.5
lfingers 7.12502
lthumb 7.32848 66.3531
rfemur -8.06711 25.7247 -8.67461
rtibia 33.6642
rfoot -3.18911 -10.7157
rtoes -27.5674
lfemur -2.31737 -5.1665 0.176369
ltibia 35.9088
lfoot -18.6443 0.693284
ltoes -27.3706
195
root 9.27373 17.3919 10.7509 51.5844 -92.7207 -54.0695
lowerback 5.61421 -1.97113 -1.90381
upperback -1.66063 -2.74739 0.596399
thorax -4.74971 -1.29666 1.94749
lowerneck -5.48975 -5.91099 -4.45824
upperneck 11.8681 -8.59627 6.87136
head 4.95152 -4.09527 2.30912
rclavicle 2.21148e-014 -3.18055e-015
rhumerus 44.1462 -48.4074 -12.7031
rradius 66.3797
rwrist -11.0842
rhand -25.124 26.3848
rfingers 7.12502
rthumb 1.39182 -3.59043
lclavicle 2.21148e-014 -3.18055e-015
lhumerus 25.5719 44.7881 -0.223424
lradius 69.1242
lwrist 19.265
lhand -18.5839 36.5815
lfingers 7.12502
lthumb 7.70678 66.4211
rfemur -8.04834 26.0264 -8.59998
rtibia 32.2766
rfoot 0.0182598 -10.8572
rtoes -24.9506
lfemur -1.85359 -5.48477 -0.540246
ltibia 33.9198
lfoot -16.0377 0.880396
ltoes -27.6016
196
root 9.27003 17.6292 10.7875 55.0126 -92.8497 -57.0063
lowerback 4.89631 -2.11706 -2.28715
upperback -1.78488 -2.95637 0.600771
thorax -4.44388 -1.39413 2.15595
lowerneck -5.78197 -5.70217 -4.40853
upperneck 12.2165 -8.33427 6.85485
head 5.08985 -3.95591 2.30259
rclavicle 7.22582e-014 1.19271e-015
rhumerus 40.7463 -47.2199 -11.325
rradius 65.1235
rwrist -10.6185
rhand -25.0606 26.0556
rfingers 7.12502
rthumb 1.45301 -3.91918
lclavicle 7.22582e-014 1.19271e-015
lhumerus 21.5523 42.4994 -2.80992
lradius 68.4519
lwrist 19.5737
lhand -18.0391 36.3292
lfingers 7.12502
lthumb 8.23258 66.1488
rfemur -8.14965 26.0803 -8.39304
rtibia 31.0976
rfoot 2.68824 -10.3539
rtoes -25.0546
lfemur -1.60409 -5.68586 -1.14659
ltibia 31.979
lfoot -13.1685 1.47886
ltoes -29.4367
197
root 9.27028 17.8633 10.8177 55.9519 -92.8374 -57.4384
lowerback 4.19481 -2.15231 -2.53621
upperback -1.82133 -2.99892 0.711918
thorax -4.06423 -1.41432 2.38169
lowerneck -6.0081 -5.73032 -4.38338
upperneck 12.0933 -8.35242 6.85493
head 5.0905 -3.95745 2.2918
rclavicle -1.09332e-015 -5.1684e-015
rhumerus 37.2316 -46.2087 -9.70159
rradius 63.8022
rwrist -10.2606
rhand -24.4614 25.4721
rfingers 7.12502
rthumb 2.03172 -4.49798
lclavicle -1.09332e-015 -5.1684e-015
lhumerus 18.103 40.1928 -4.57518
lradius 67.843
lwrist 19.901
lhand -17.4585 36.3713
lfingers 7.12502
lthumb 8.79288 66.1681
rfemur -8.37359 25.975 -7.90418
rtibia 30.1687
rfoot 3.415 -9.17411
rtoes -25.8992
lfemur -1.43729 -5.97807 -1.48927
ltibia 30.0969
lfoot -10.111 1.98343
ltoes -28.967
198
root 9.27361 18.0909 10.8459 62.0686 -92.7239 -63.0722
lowerback 3.64177 -2.24661 -2.68239
upperback -1.95029 -3.12359 0.656421
thorax -3.8737 -1.4765 2.39199
lowerneck -6.00036 -5.90883 -3.86482
upperneck 11.8602 -8.61463 6.71373
head 5.00491 -4.07498 2.14904
rclavicle 3.42655e-014 1.51076e-014
rhumerus 33.3898 -44.9896 -8.00642
rradius 62.4751
rwrist -10.4889
rhand -24.0384 25.4274
rfingers 7.12502
rthumb 2.4403 -4.53842
lclavicle 3.42655e-014 1.51076e-014
lhumerus 14.9205 37.5623 -6.1849
lradius 67.4545
lwrist 20.4168
lhand -16.8015 37.0217
lfingers 7.12502
lthumb 9.42688 66.7909
rfemur -8.55681 25.3418 -7.34417
rtibia 29.514
rfoot 2.82527 -6.74951
rtoes -28.3389
lfemur -1.44148 -6.61552 -1.83818
ltibia 28.3127
lfoot -6.8597 2.57786
ltoes -26.833
199
root 9.27904 18.3097 10.8682 71.4698 -92.861 -71.9717
lowerback 3.14171 -2.36386 -2.95364
upperback -2.09259 -3.2913 0.435006
thorax -3.7271 -1.55842 2.3049
lowerneck -6.31909 -5.90212 -4.06185
upperneck 12.1634 -8.67939 7.23365
head 5.18769 -4.07566 2.32207
rclavicle -2.48481e-015 0
rhumerus 29.5669 -43.6813 -6.53938
rradius 61.22
rwrist -10.4243
rhand -24.6705 25.8277
rfingers 7.12502
rthumb 1.8298 -4.14424
lclavicle -2.48481e-015 0
lhumerus 12.0613 34.9168 -7.49233
lradius 67.0186
lwrist 20.8213
lhand -16.1552 37.5713
lfingers 7.12502
lthumb 10.0504 67.3113
rfemur -8.87189 24.439 -7.00954
rtibia 29.0972
rfoot 2.3966 -3.59884
rtoes -32.1032
lfemur -1.62722 -7.43966 -2.46953
ltibia 26.7192
lfoot -3.6796 3.76294
ltoes -23.8877
